<?xml version="1.0" encoding="UTF-8"?>
<svg id="Ebene_1" data-name="Ebene 1" xmlns="http://www.w3.org/2000/svg" xmlns:xlink="http://www.w3.org/1999/xlink" viewBox="0 0 207.89 51.79">
  <defs>
    <style>
      .cls-1 {
        clip-path: url(#clippath-2);
      }

      .cls-2 {
        fill: #00b2e8;
      }

      .cls-3 {
        clip-path: url(#clippath-1);
      }

      .cls-4 {
        clip-path: url(#clippath);
      }

      .cls-5 {
        fill: none;
      }

      .cls-6 {
        clip-path: url(#clippath-3);
      }

      .cls-7 {
        fill: #1d1d1b;
      }
    </style>
    <clipPath id="clippath">
      <rect class="cls-5" x="-34.56" y="-35.21" width="277" height="121.7"/>
    </clipPath>
    <clipPath id="clippath-1">
      <rect class="cls-5" x="-34.56" y="-35.21" width="277" height="121.7"/>
    </clipPath>
    <clipPath id="clippath-2">
      <rect class="cls-5" x="-34.56" y="-35.21" width="277" height="121.7"/>
    </clipPath>
    <clipPath id="clippath-3">
      <rect class="cls-5" x="-34.56" y="-35.21" width="277" height="121.7"/>
    </clipPath>
  </defs>
  <g>
    <g class="cls-4">
      <path class="cls-2" d="m163.54,1.89c-4.6,0-9.2.3-13.8.8v.7s6.5.5,11.8.6v43.4c-3.9.1-7.9.3-11.8.8v.6s8.5.6,13.9.6,13.6-.5,13.6-.5h0v-.8s-5.6-.6-11.9-.7V3.99c5.2-.1,11.9-.5,11.9-.5h0v-.8c-.1-.1-6.8-.8-13.7-.8Z"/>
    </g>
    <g class="cls-3">
      <path class="cls-7" d="m137.24,35.09h-5.1l-7.4-6.9h-4v6.9h-4.2v-18.3h15.7c2.8,0,4.1,1,4.1,3.5v4.3c0,2.6-1.3,3.5-4.1,3.5h-2.4l7.4,7Zm-7-15.1h-9.6v5.1h9.6c1.3,0,1.9-.2,1.9-1.5v-2.2c0-1.2-.6-1.4-1.9-1.4"/>
    </g>
    <g class="cls-1">
      <path class="cls-7" d="m63.64,16.89h3.8v15.2h14.6v3.1h-16.9c-.9-.1-1.6-.9-1.6-1.8v-16.5h.1Z"/>
    </g>
  </g>
  <path class="cls-7" d="m22.74,16.79v7.1h-13.3v-7.1h-4.3v7.3h-2.9l.7,3.2h2.2v7.9h4.3v-7.9h13.3v7.9h4.3v-18.4h-4.3ZM5.14,35.09h0Z"/>
  <g class="cls-6">
    <path class="cls-7" d="m201.54,19.99v2.1l3.8-.9v-.4c0-3.2-1.3-4-4.5-4h-10.4c-3.4,0-4.5.9-4.5,4.3v2c0,3.4,1.1,4.3,4.5,4.3h11.4v4.2h-13v-2.2l-3.8.8v.6c0,3.4,1.1,4.3,4.6,4.3h11.3c3.4,0,4.6-.9,4.6-4.3v-2.5c0-3.4-1.1-4.3-4.6-4.3h-11.4v-3.9l12-.1h0Z"/>
  </g>
</svg>